<svg width="64" height="64" viewBox="0 0 64 64" fill="none" xmlns="http://www.w3.org/2000/svg">
  <path d="M20 40C20 29 27 22 35 20C40 19 44 22 45 27C40 27 37 30 37 35V38C37 45 32 50 25 50C22 50 20 46 20 40Z" stroke="currentColor" stroke-width="3.5" stroke-linejoin="round"/>
  <path d="M36 35C44 35 49 40 49 47" stroke="currentColor" stroke-width="3.5" stroke-linecap="round"/>
  <path d="M15 47H27M25 33C29 32 33 29 35 25" stroke="currentColor" stroke-width="3" stroke-linecap="round"/>
  <path d="M23 42C28 43 33 41 36 37" stroke="currentColor" stroke-width="2.5" stroke-linecap="round"/>
  <circle cx="43" cy="27" r="2" fill="currentColor"/>
</svg>
